<?xml version="1.0" encoding="UTF-8" standalone="no"?>
<svg width="443px" height="242px" viewBox="0 0 443 242" version="1.1" xmlns="http://www.w3.org/2000/svg" xmlns:xlink="http://www.w3.org/1999/xlink" xmlns:sketch="http://www.bohemiancoding.com/sketch/ns">
    <!-- Generator: Sketch 3.0.4 (8053) - http://www.bohemiancoding.com/sketch -->
    <title>ruby_camp</title>
    <desc>Created with Sketch.</desc>
    <defs></defs>
    <g id="Page-1" stroke="none" stroke-width="1" fill="none" fill-rule="evenodd" sketch:type="MSPage">
        <g id="ruby_camp" sketch:type="MSArtboardGroup">
            <path d="M226.78391,34.9070716 L383.901059,9.06567527 L433.943794,123.940853 L291.18399,170.039423 L225.554323,59.6447585 L226.78391,34.9070716 Z" id="Path-3" fill="#9198A6" sketch:type="MSShapeGroup"></path>
            <path d="M156.927309,173.516564 L291.435745,170.402461 L226.360669,34.8559909 L156.927309,173.516564 Z" id="Path-2" fill="#1C2230" sketch:type="MSShapeGroup"></path>
            <path d="M156.927309,173.516564 L278.307612,143.133937 L226.360669,34.8559909 L156.927309,173.516564 Z" id="Path-5" fill="#3D475A" sketch:type="MSShapeGroup"></path>
            <path d="M156.927309,173.516564 L251.427958,149.944843 L226.360669,34.8559909 L156.927309,173.516564 Z" id="Path-7" fill="#465065" sketch:type="MSShapeGroup"></path>
            <path d="M26.073289,199.131995 L85.4113652,211.510084" id="Path-6" stroke="#99A4BB" stroke-width="5" stroke-linecap="round" stroke-linejoin="round" sketch:type="MSShapeGroup"></path>
            <path d="M26,211.503906 L89.9823122,199.094928" id="Line" stroke="#99A4BB" stroke-width="5" stroke-linecap="round" stroke-linejoin="round" sketch:type="MSShapeGroup"></path>
            <g id="Path-11-+-Path-12-+-Path-14" sketch:type="MSLayerGroup" transform="translate(22.000000, 43.000000)">
                <path d="M30.414424,151.301172 C10.0452101,151.301173 -11.4546465,127.015886 7.82272784,90.280874 C27.1001022,53.5458618 27.4017107,17.9260709 22.4459783,0.376889933 C22.4459783,0.376889933 68.8813687,72.5567834 68.8813687,108.815473 C68.8813687,145.074163 50.783638,151.30117 30.414424,151.301172 Z" id="Path-11" fill="#B12929" sketch:type="MSShapeGroup"></path>
                <path d="M31.6302858,145.091924 C13.4240842,145.091924 1.64686718,119.573813 17.7533811,92.4959395 C33.8598949,65.4180663 36.073851,46.512222 32.9875814,25.8834493 C32.9875814,25.8834493 63.0940191,78.9971349 63.0940191,107.415401 C63.0940191,135.833668 49.8364874,145.091924 31.6302858,145.091924 Z" id="Path-12" fill="#EE7D7D" sketch:type="MSShapeGroup"></path>
                <path d="M31.8601286,139.195569 C23.1007034,139.195565 11.4413588,123.758244 21.1634714,103.613006 C30.8855841,83.4677685 39.5107209,65.7913588 40.1296966,52.9274338 C40.1296966,52.9274338 55.4701672,88.2890442 55.4701672,110.96153 C55.4701672,133.634015 40.6195538,139.195573 31.8601286,139.195569 Z" id="Path-14" fill="#FFD9D9" sketch:type="MSShapeGroup"></path>
            </g>
            <g id="Group" sketch:type="MSLayerGroup" transform="translate(332.513832, 84.844415) rotate(-19.000000) translate(-332.513832, -84.844415) translate(301.383623, 54.707723)">
                <path d="M18.6282746,19.6767844 C37.2711242,0.91025835 58.5650168,2.64248797 61.1340202,9.75904674 C63.7030236,16.8756055 59.5329212,59.9466164 59.5329212,59.9466164 C59.5329212,59.9466164 11.3369446,60.9952133 6.89226512,55.6369678 C2.44758559,50.2787223 -0.0145750298,38.4433105 18.6282746,19.6767844 Z" id="Path-14" fill="#B12929" sketch:type="MSShapeGroup"></path>
                <ellipse id="Oval-2" fill="#EE7D7D" sketch:type="MSShapeGroup" transform="translate(29.368592, 28.106107) rotate(-312.000000) translate(-29.368592, -28.106107) " cx="29.2808222" cy="28.0109751" rx="11.8344383" ry="29.0480427"></ellipse>
                <ellipse id="Oval-1" fill="#D23838" sketch:type="MSShapeGroup" transform="translate(29.409849, 27.590457) rotate(-312.000000) translate(-29.409849, -27.590457) " cx="29.4299412" cy="27.6540169" rx="10.9487828" ry="27.5508723"></ellipse>
                <ellipse id="Oval-2" fill="#F58F8F" sketch:type="MSShapeGroup" transform="translate(36.380208, 22.596084) rotate(-312.000000) translate(-36.380208, -22.596084) " cx="36.3923806" cy="22.6296922" rx="6.63320789" ry="14.5677429"></ellipse>
                <path d="M30.6334479,48.1245654 L16.4206152,55.6369699 L56.1880009,58.4013024 L30.6334479,48.1245654 Z" id="Path-15" fill="#D23838" sketch:type="MSShapeGroup"></path>
                <path d="M55.6381213,56.882794 L57.2384957,18.7708431 L48.3013208,29.082355 L55.6381213,56.882794 Z" id="Path-16" fill="#911B1B" sketch:type="MSShapeGroup"></path>
                <path d="M35.6277128,50.014353 L57.300507,52.1160671 L43.6578398,35.4371078 L35.6277128,50.014353 Z" id="Path-13" fill="#A31515" sketch:type="MSShapeGroup" transform="translate(46.436247, 43.770038) rotate(21.000000) translate(-46.436247, -43.770038) "></path>
            </g>
        </g>
    </g>
</svg>