<?xml version="1.0" encoding="UTF-8" standalone="no"?>
<svg width="182px" height="155px" viewBox="0 0 182 155" version="1.1" xmlns="http://www.w3.org/2000/svg" xmlns:xlink="http://www.w3.org/1999/xlink" xmlns:sketch="http://www.bohemiancoding.com/sketch/ns">
    <!-- Generator: Sketch 3.0.4 (8053) - http://www.bohemiancoding.com/sketch -->
    <title>sa_map</title>
    <desc>Created with Sketch.</desc>
    <defs></defs>
    <g id="Page-1" stroke="none" stroke-width="1" fill="none" fill-rule="evenodd" sketch:type="MSPage">
        <path d="M141.673661,1.22945424 C143.023984,1.13530817 144.342029,0.664577815 145.705802,0.766793548 C147.524166,1.05730142 148.979396,2.32154865 150.735892,2.80572844 C152.409003,3.4082633 154.187018,2.91870373 155.895097,2.78420934 C157.705392,2.56363855 159.531825,2.79765878 161.296392,3.20383183 C161.81016,3.33294644 162.410005,3.48358015 162.649405,4.01886781 C163.372985,5.32077347 163.698461,6.79214205 164.163812,8.19626345 C164.69372,9.99310845 165.511446,11.7576748 165.468407,13.6728749 C165.527585,14.7703491 165.274736,15.9754188 165.869201,16.9706772 C166.396419,17.8529604 166.84563,18.7809716 167.119999,19.7762301 C167.378228,20.7741785 168.015731,21.5972841 168.629026,22.4015605 C167.08772,23.3295718 165.239767,23.0713426 163.539758,23.3779898 C162.53105,23.6012505 161.307151,22.9906459 160.449077,23.7115359 C159.948758,24.7417629 160.112841,25.9495224 160.029455,27.0604461 C160.521704,27.0120281 161.013953,26.9663 161.508893,26.917882 C161.379778,27.2325989 161.253353,27.5473157 161.126929,27.8620326 C161.487374,28.3166236 161.855888,28.7685248 162.205574,29.2338754 C161.272183,29.3791293 160.303823,29.626599 159.370432,29.36299 C158.482769,29.1209001 157.635454,28.7496956 156.78007,28.4161495 C156.29858,29.7153653 156.002693,31.0737586 155.572311,32.3891137 C155.381329,33.0615856 154.719616,33.7663362 153.963758,33.5188665 C152.874353,33.171871 151.74191,32.980889 150.596018,33.0319968 C150.429245,33.9976665 150.259782,34.9660261 150.07687,35.9316958 C149.560411,35.8832778 149.046643,35.8429295 148.532874,35.8025812 C148.484456,36.7628711 148.444108,37.723161 148.39838,38.6834509 C145.732701,39.544215 142.902939,39.7217476 140.129665,39.3855116 C139.5352,38.8233251 138.744373,38.3687341 138.413517,37.5967363 C138.542631,37.0802778 138.913836,36.6714149 139.190894,36.2275834 C138.386618,35.6949857 137.291834,35.3345407 137.030914,34.2989339 C136.88835,33.4301002 135.825845,33.6237721 135.21524,33.8039946 C134.01286,34.3096935 133.098299,35.2888126 132.011584,35.9854935 C131.3956,36.3459385 131.024395,36.9592329 130.830723,37.6317048 C131.729146,37.4649318 132.611429,37.2255318 133.482953,36.9484734 C133.501782,37.0937273 133.53944,37.3842352 133.558269,37.5294891 C132.708265,37.8764846 131.8744,38.3283858 130.954458,38.4467408 C129.889263,38.0701565 129.103815,37.2013228 128.175804,36.5880284 C128.904764,36.4831228 129.534197,36.1146082 130.015687,35.5631812 C129.066157,35.0440328 128.070898,34.4845362 126.954595,34.4952957 C125.776424,34.4872261 124.598253,34.4307384 123.420083,34.489916 C122.360267,34.4926059 121.830359,35.8267902 120.740954,35.7057452 C119.057085,35.6680868 117.986509,34.1644396 116.649635,33.3574732 C116.458653,32.7065204 116.28381,32.0501878 116.095518,31.399235 C115.081431,31.9775608 114.118451,32.7845272 112.92952,32.9405406 C111.692172,32.859844 110.352608,32.5316777 109.486464,31.5767676 C110.148177,29.9466956 110.979352,28.2493764 112.550246,27.3213652 C113.246927,26.7806977 114.357851,26.511709 114.548833,25.5325898 C115.006114,23.6953965 115.191716,21.790956 115.767352,19.9860414 C116.353747,18.9289155 117.338246,18.1569177 118.174801,17.3015334 C118.989837,16.4622884 120.13304,16.136812 121.184786,15.7037401 C121.989062,15.4159221 122.327988,14.5712974 122.796029,13.9284142 C123.280208,13.7777805 123.810116,13.7024636 124.232429,13.4011962 C125.792564,12.1423287 126.798582,10.3777624 127.917575,8.74500054 C128.633085,7.79278029 129.367424,6.74103419 130.489107,6.2353353 C131.718386,5.82647236 133.06333,5.92061843 134.281849,5.45795774 C135.226,5.09751279 136.213189,4.76934648 137.020155,4.14798242 C137.544683,3.4513015 137.598481,2.48832169 138.190256,1.83467898 C139.250072,1.26711267 140.508939,1.38008795 141.673661,1.22945424 Z M163.773778,23.8971381 C165.522205,23.6146999 167.343259,23.7169156 169.019059,23.060583 C169.223491,24.1741965 169.47903,25.2824303 169.944381,26.3207269 C170.646441,27.9319697 170.347864,29.7234349 170.42856,31.4261338 C170.511947,34.4926059 170.509257,37.5590779 170.302136,40.6174802 C170.471599,42.6564151 169.664632,44.6038938 169.791057,46.6401388 C167.57459,46.4034287 166.221576,44.3268354 164.174571,43.6758826 C163.292288,43.4095837 162.625196,44.2488286 162.04418,44.7706669 C160.543223,46.1344399 160.182778,48.2244827 159.042266,49.8357254 C158.388623,50.8659524 157.455232,51.785894 157.207762,53.0232424 C157.003331,54.3197683 157.129756,55.6405032 157.210452,56.9450987 C157.705392,57.1925684 158.286407,57.3378223 158.684511,57.7439954 C159.109513,58.518683 159.152551,59.4843527 159.779295,60.1514449 C160.502875,60.9422719 161.347499,61.6066741 162.135637,62.327564 C161.81823,62.6100023 161.500823,62.8924405 161.175347,63.1614292 C160.231196,62.9812068 159.289735,62.784845 158.340205,62.6315214 C156.497632,62.3168045 154.601261,62.6745596 152.774827,62.2118989 C152.094286,62.5831034 151.432573,63.0161753 150.679405,63.2340562 C149.525443,63.527254 148.296164,63.0995618 147.158342,63.4976652 C146.206121,63.8419708 145.326528,64.3476697 144.436175,64.8184001 C143.911647,63.9845349 143.440917,63.1103214 142.787274,62.3679124 C141.964169,61.491009 140.761789,61.1709123 139.736941,60.603346 C139.021431,60.2536606 138.628708,59.524701 138.045002,59.0190021 C136.640881,58.9840336 135.196411,59.0916291 133.902575,58.4218471 C133.574409,58.6208988 133.251622,58.8226403 132.926146,59.021692 C132.019654,58.5509617 131.078193,58.1555482 130.125973,57.7951032 C130.889901,56.5927234 131.556993,55.3123369 132.490384,54.2283121 C133.270451,53.3003008 134.74451,53.6150177 135.546096,52.7058356 C135.901162,52.2700738 136.630121,51.6487098 136.041036,51.1107322 C135.290557,50.5055075 134.128526,50.6669008 133.415705,49.9567704 C132.775512,49.4564513 132.245604,48.3885658 132.988013,47.7403029 C133.757321,46.6777973 135.196411,47.4040669 136.207809,46.9387164 C137.321422,45.8035837 137.418258,44.0901253 138.246744,42.7720803 C138.472694,42.1883746 139.099438,41.532042 138.720164,40.8891589 C138.201016,41.0613117 137.741045,41.3598892 137.248795,41.5912196 C136.630121,41.3195409 135.965719,41.1527679 135.287867,41.1581476 C135.438501,41.604669 135.599894,42.0485005 135.761287,42.4950218 C135.22062,42.4896421 134.679953,42.4869522 134.141975,42.4842623 C133.999411,41.5212825 133.751941,40.5394735 133.921404,39.5657341 C134.300678,38.7991161 135.086126,38.3310756 135.481539,37.5752172 C135.45195,36.9968913 135.177582,36.0366014 134.432483,36.1979947 C133.388806,36.2733115 132.436586,36.7521115 131.462847,37.0937273 C132.501144,36.4266351 133.464123,35.6600171 134.357166,34.8100126 C134.854795,34.3096935 135.583755,34.2289969 136.240087,34.081053 C136.584393,35.0467227 137.307973,35.7810621 138.182186,36.2894509 C138.125699,36.9484734 138.042312,37.6021161 137.991204,38.2611386 C138.725544,38.9255408 139.365737,39.9611476 140.473971,39.9611476 C143.268764,40.1171611 146.149634,40.0687431 148.799173,39.0519656 C148.842211,38.1454734 148.88256,37.2362913 148.933668,36.3297992 C149.407088,36.3916666 149.877818,36.453534 150.353928,36.5127115 C150.657886,35.5389722 150.843488,34.5329542 150.956463,33.5188665 C152.053937,33.4516193 153.159481,33.650671 154.009486,34.39308 C154.695407,34.0084261 155.464715,33.6452912 155.873578,32.932471 C156.589088,31.7381608 156.677854,30.3179001 156.979122,28.9890956 C157.810297,29.3495405 158.625333,29.7906821 159.526445,29.960145 C160.513634,30.0650507 161.490064,29.7987518 162.455733,29.6346686 C162.29703,29.0106147 162.087219,28.4027 161.893547,27.7894056 C162.06301,27.4504798 162.237852,27.1115539 162.423455,26.775318 C161.750983,26.6246843 161.070441,26.5036393 160.395279,26.3799045 C160.60778,25.5567988 160.658888,24.5749898 161.317911,23.9643853 C162.116807,23.8056819 162.961432,24.0585314 163.773778,23.8971381 Z M103.646718,32.2438597 C105.491981,31.7031923 107.364143,31.2620507 109.255134,30.9285046 C109.287412,31.0441698 109.34928,31.27819 109.378869,31.3938552 C109.473015,31.7892687 109.559091,32.190062 109.650547,32.5881653 C110.737262,32.8786732 111.797078,33.3225047 112.921451,33.4327901 C113.930159,33.2929159 114.801682,32.6903811 115.721624,32.2868979 C116.687294,34.1967182 118.344264,36.3728374 120.740954,36.1979947 C122.03479,36.3916666 122.653465,34.7750441 123.928471,34.8880194 C125.779114,34.9014688 127.866467,34.5921317 129.405083,35.8725183 C128.815997,35.8994171 128.226912,35.8994171 127.640516,35.926316 C127.766941,37.2578104 129.125334,37.7500599 129.867743,38.6942105 C128.737991,39.065415 127.54368,39.1165229 126.389719,39.3397835 C126.233705,39.6329813 126.327851,39.9772869 126.343991,40.2920038 C126.545732,41.6423274 126.196047,42.9845814 126.031964,44.3187657 C125.432119,44.6496219 124.824204,44.9670287 124.229739,45.3032646 C123.675622,45.0019972 123.132265,44.6872803 122.586217,44.3752534 C121.833049,44.8190848 120.762473,45.1391815 120.622599,46.1451995 C120.146489,48.4934715 121.149817,50.7744963 122.058999,52.8833682 C122.352197,54.6237256 121.588269,56.3990515 120.480035,57.7224763 C120.143799,57.5341841 119.807563,57.3485819 119.471327,57.1656695 C118.979078,57.4481077 118.502968,57.7735841 117.9623,57.9484268 C116.811028,58.1851369 115.673206,57.3270628 114.538073,57.7628246 C112.687431,58.3841886 110.906725,59.406346 109.639788,60.915373 C109.634408,61.6039842 109.849599,62.2791461 109.806561,62.9704472 C109.147538,63.5407034 108.187248,63.6321596 107.552435,64.245454 C106.71319,65.0631799 106.046098,66.0342293 105.341347,66.9649305 C104.601628,66.4296428 103.767763,65.7006833 102.788644,65.8782158 C101.699239,66.2117619 100.682462,66.7497395 99.6065065,67.1182541 C97.7074458,67.7799665 96.1419311,69.1625688 95.0256277,70.8141598 C94.6867019,71.193434 94.4365423,71.8255576 93.844767,71.8094183 C93.1050479,71.9250835 92.7957108,71.002452 92.6585265,70.4295059 C93.0996681,69.3105126 93.9900209,68.4497485 94.6329041,67.4464204 C93.7586906,67.3038563 92.8495085,67.2043305 92.0748209,66.73629 C91.7143759,66.6044855 91.3162725,66.1821732 90.9289287,66.448472 C90.2672163,66.8304361 90.3667422,67.718099 90.2053489,68.3636721 C90.0789242,69.6494384 89.5221174,70.8356789 88.8066073,71.8954947 C88.3869848,71.1584655 87.7333421,70.4187463 87.854387,69.5095643 C87.9216342,68.7160474 87.9915713,67.9225305 88.0104005,67.1263237 C86.8887173,67.2312294 85.7697241,67.3791732 84.6614903,67.5809148 C84.3951914,66.9864496 84.1019937,66.3973642 83.9459802,65.7652406 C83.7980363,64.9206158 84.0024678,64.0706113 84.1046835,63.2340562 C83.5075285,62.7929146 82.8834745,62.3921214 82.2809397,61.9590494 C82.6951824,61.0283483 83.2977172,60.1595145 83.5075285,59.1508066 C83.4967689,58.2739032 82.8296768,57.4911459 81.9823621,57.2867144 C80.6158992,56.8724717 79.2252272,56.5093369 77.9260114,55.9014223 C78.1950002,55.3553751 78.4559193,54.8012582 78.7302879,54.2579009 C77.7054406,53.6096379 76.594517,53.1146986 75.4378653,52.7677031 C75.1123889,51.3097839 74.9805844,49.7792378 75.5535305,48.3643569 C75.9839125,47.9447344 76.3524271,47.4686242 76.7532204,47.019413 C76.0807485,46.8203613 75.4055866,46.6078602 74.7062158,46.5540624 C73.4150697,46.3872894 72.6054135,47.619258 71.7204405,48.337458 C70.5853078,49.2735389 70.5180606,50.8390536 70.1576157,52.1597884 C69.9531842,52.1382693 69.5443213,52.097921 69.3425797,52.0764019 C69.2484336,50.7691165 69.1085595,49.4618311 68.7696336,48.192204 C69.7460629,45.701368 69.982773,42.9576825 71.1959124,40.5583027 C71.8925933,39.1030734 73.6195012,38.6377228 75.1043192,38.5758554 C77.6435732,38.5543363 79.4726969,40.6013409 81.3475486,42.0296713 C82.2943891,42.922714 83.6769914,42.6671747 84.8444027,42.946923 C85.7186162,43.2831589 86.4072274,44.0390174 87.3702072,44.168132 C88.7286005,44.383323 90.0439556,44.8217747 91.4131085,44.9697185 C92.2658029,45.0853837 93.0216614,44.6092736 93.7828996,44.3053163 C94.562967,43.9125927 95.4425603,44.2326893 96.2602862,44.2622781 C97.8177312,44.4936084 99.426284,43.7915477 100.440372,42.6160668 C101.301136,41.4109971 101.486738,39.8912105 102.016646,38.538197 C102.702567,36.4858127 103.939916,34.4926059 103.646718,32.2438597 Z M39.5278642,32.8248755 C40.4478058,33.4005114 41.4161653,33.9062103 42.2554103,34.5948216 C43.2291497,35.3937182 43.7509879,36.5691992 44.3024149,37.6693633 C44.9964059,39.1084532 46.0051138,40.4103589 46.384388,41.9893229 C46.8604981,44.1950309 48.4798105,46.0940916 48.2888285,48.4423636 C48.2484802,50.1907906 46.5215722,51.1752895 45.9916644,52.7192851 C45.7011565,54.5080604 45.9378666,56.3936717 46.7690419,58.015674 C47.4818622,57.6498493 48.1758532,57.2033279 48.9693701,57.0392448 C50.1098825,57.0473144 51.1965971,57.561083 52.3505589,57.4561774 C53.6766736,57.3647212 55.0054781,57.2759549 56.3369726,57.3916201 C57.0524827,57.39431 57.8433097,57.5422538 58.4996423,57.1764291 C58.9569232,56.7245279 59.0349299,56.0332268 59.2770198,55.4602807 C60.1539232,55.2343301 61.116903,55.1590133 61.8781413,54.6237256 C62.9540964,53.6930244 63.298402,52.1624783 64.446984,51.2963345 C65.765029,50.2822468 67.3009549,49.6017052 68.6270696,48.5956872 C68.6432089,49.6689524 68.6862471,50.755667 68.9256471,51.8047233 C69.0305527,52.3938087 69.7218539,52.5283031 70.1334067,52.8510896 C70.4696427,52.0252941 70.749391,51.1806693 71.0425888,50.3387345 C71.4783506,48.8835052 72.9201304,48.122267 73.7566855,46.9279568 C74.6389686,46.9333366 75.5373911,47.0140332 76.3093889,47.4847636 C75.7283732,47.5654602 75.1500473,47.6434669 74.5663417,47.6945748 C74.9671349,49.4833502 74.6147597,51.3420626 75.0908698,53.1254581 C76.1291664,53.4455548 77.145944,53.8302087 78.1385126,54.2740402 C77.8964227,54.8738852 77.6435732,55.4710402 77.4122429,56.0735751 C78.8540227,56.8321234 80.379189,57.4185189 81.9581531,57.824692 C82.5822071,57.9295976 83.0852161,58.4648853 83.0583172,59.1131482 C82.7947082,60.1460651 82.0953374,61.0068292 81.818279,62.0343663 C82.3105284,62.6126921 82.9480318,63.0403843 83.5398071,63.5084248 C83.3299959,65.0524203 83.5102184,66.617935 84.1961397,68.030126 C85.339342,67.8579732 86.4852342,67.6912002 87.6311264,67.5217372 C87.4885623,68.6380407 86.9425151,69.8888384 87.6526455,70.9217553 C88.0050208,71.4597329 88.3708455,72.3097374 89.1455331,72.2290408 C90.4017107,70.8168497 90.7998141,68.8586114 90.8912703,67.0214181 C91.9349467,67.4302811 93.05394,67.5567058 94.1675535,67.5809148 C93.6376456,68.2076586 93.0915984,68.8236429 92.623558,69.4988047 C92.408367,69.8377306 92.0936501,70.2143149 92.2738726,70.6393171 C92.5482411,71.5592587 93.2583715,72.2532498 93.8797355,72.9553105 C93.4977715,73.4502498 93.0593198,73.899461 92.6800456,74.3944004 C92.9490344,75.2255757 92.8360591,76.0863398 92.4917535,76.8798566 C91.9430164,78.1279645 92.5590007,79.577814 91.8192815,80.7748141 C90.2833557,83.7390703 88.8308163,86.7436749 87.3056499,89.713311 C86.9048567,90.5256571 86.4986836,91.6177515 87.2195735,92.3816796 C88.4515421,93.688965 90.2187983,94.3506774 91.4400074,95.6741022 C92.168967,96.5752146 92.6881153,97.6296506 93.484322,98.4796551 C94.9395513,100.02903 96.241457,101.984579 98.4740638,102.43379 C98.8856166,103.646929 99.6065065,104.876208 99.307929,106.202323 C99.1546054,107.436981 98.5117222,108.523696 97.8553896,109.556613 C96.9246884,109.529714 95.977848,109.572752 95.0928749,109.882089 C93.6161265,110.301712 92.3626389,111.278141 90.850922,111.592858 C90.3640523,111.727352 89.8556635,111.810739 89.3983826,112.031309 C88.6667331,112.959321 88.6344545,114.215498 88.3950545,115.329112 C86.9290657,115.692247 85.4523173,116.006964 83.997088,116.407757 C83.7361689,116.076901 83.4779397,115.748734 83.2224004,115.423258 C82.7382206,115.910128 82.2809397,116.421206 81.8209689,116.926905 C81.4551441,116.173737 81.1404273,115.205377 80.2312452,114.971357 C79.279025,114.839552 78.3375643,115.151579 77.4041732,115.280694 C76.6725238,115.450157 75.755272,115.460916 75.3087507,116.168357 C74.6846967,117.05064 74.0902315,117.959822 73.2778855,118.683402 C73.0815236,118.339096 72.8878517,117.992101 72.6941798,117.650485 C71.1474944,117.338458 69.6115685,116.978013 68.0675729,116.647157 C67.8819707,116.154907 67.8658313,115.506644 67.3520628,115.224206 C66.4025324,114.65126 65.3158178,114.376892 64.2775211,114.021826 C63.8471391,115.234966 63.2634334,116.391617 62.4295683,117.378806 C61.7570963,118.097006 62.0341548,119.129923 62.0691233,120.009516 C61.4127907,120.743856 60.8452244,121.580411 60.0463277,122.169496 C58.8466378,121.978514 57.6819164,121.494334 56.4391883,121.626139 C56.2024782,122.07804 56.0921928,122.632157 55.7075388,122.987222 C55.0054781,123.401465 54.1769927,123.544029 53.4830017,123.971721 C52.6087882,124.646883 52.1784061,125.720148 51.4010286,126.492146 C50.4730173,126.970946 49.3271251,126.753065 48.3910442,127.231865 C47.581388,127.907027 48.4771206,129.332667 47.6324959,129.970171 C46.478534,130.284888 45.257325,130.037418 44.0764643,130.134254 C42.5862665,128.966843 41.184835,127.533132 40.7894215,125.609863 C40.2756529,124.267609 42.1101564,123.584377 42.2473406,122.379308 C42.0993968,121.825191 41.4887923,121.542752 41.1175878,121.141959 C40.4101473,121.819811 39.7834035,122.594499 38.9656776,123.145926 C37.854754,123.683903 36.4371832,123.616656 35.5360708,124.566186 C34.9873337,125.313975 34.8313202,126.263505 34.4816348,127.10813 C34.0082145,125.827744 33.8844797,124.450521 33.4029898,123.170135 C33.8091628,122.290541 34.4170775,121.311422 34.0539426,120.313474 C33.2146977,119.471539 31.9800392,119.011568 31.5173785,117.825328 C30.7964886,117.819948 30.0755987,117.798429 29.3573987,117.77422 C29.421956,116.531492 29.5483807,115.283384 29.4327155,114.043345 C29.1852458,112.173873 28.319102,110.463105 27.88872,108.639361 C27.7111874,108.001858 27.8698907,107.350905 28.0232143,106.729541 C28.2330256,105.906435 28.1496391,105.045671 28.0743222,104.211806 C26.5088076,102.982527 25.3144974,101.306727 23.5822097,100.295329 C23.1706569,100.440583 22.7967625,100.671914 22.4174883,100.884415 C22.1646389,100.801028 21.9144793,100.717642 21.6616299,100.639635 C21.5701737,101.581096 21.4975467,102.544075 21.1290321,103.426359 C20.8331445,104.133799 20.2037107,104.604529 19.646904,105.099469 C19.0605084,104.82779 18.471423,104.566871 17.8769578,104.314022 C16.8090724,105.691244 16.029005,107.251379 15.1601712,108.755026 C13.4386431,106.253431 12.1609464,103.493606 10.6949576,100.844066 C9.61093286,98.8912079 9.07564521,96.709709 8.27943844,94.6411853 C7.68228336,93.0998796 7.29493953,91.4913268 6.85110806,89.904293 C6.39113726,88.2258031 5.5707215,86.6818075 4.91438889,85.0813243 C4.41406978,83.8735647 3.62862256,82.8245085 2.89428321,81.759313 C2.15456409,80.6161107 1.57892811,79.3787623 0.890316856,78.2086612 C1.89633487,77.7244814 2.98304951,77.399005 3.9487192,76.8341286 C4.48669675,75.9195667 4.41137989,74.7682948 4.93052822,73.8349037 C5.36897992,72.9768296 5.89350803,71.839007 7.03402042,71.8981846 C8.25522945,71.7825194 8.48386991,73.2162296 8.70713059,74.1038925 C9.22089914,74.1281015 9.73197781,74.1496206 10.2430565,74.1711397 C10.4098295,74.5746229 10.6223306,74.9673465 10.7084071,75.4004184 C10.6734385,76.0271622 10.2080879,76.6108679 10.3936902,77.2456814 C10.6411599,78.0580275 10.9397374,78.8515443 11.1737576,79.6692702 C12.6612655,79.7822455 14.0411779,80.4224388 15.5367555,80.5031354 C16.9704657,80.5488635 17.9119264,81.8938074 19.3160478,82.0363714 C21.5997625,82.3322591 23.792021,81.398868 26.0542165,81.3638995 C27.4072301,81.2966523 28.3755896,82.3779872 29.5833492,82.765331 C30.3903155,82.8325782 31.0950661,82.3134298 31.8105763,82.0121624 C31.6411133,81.4876343 31.458201,80.9657961 31.2941178,80.4385781 C31.840165,80.2906343 32.3835224,80.1346208 32.9161201,79.9409489 C34.0862213,79.5697444 34.1588483,77.8939443 35.3800573,77.6115061 C36.7465202,77.2214724 38.1129832,76.823369 39.4202686,76.2611825 C39.5063451,73.6008835 39.4525473,70.9432744 39.4713765,68.2829755 C39.460617,56.4636088 39.5197945,44.6442421 39.5278642,32.8248755 Z M133.991341,36.8462576 C134.26302,36.7521115 134.534699,36.6552756 134.806377,36.5584396 C135.328216,37.7796487 133.891815,38.3633543 133.509851,39.3370937 C133.30542,40.4022892 133.442604,41.532042 133.838018,42.53806 C134.101627,43.210532 134.876314,43.4580016 135.524577,43.5790466 C136.312714,43.522559 136.280436,42.6429657 136.476798,42.0727095 C137.004016,42.0888488 137.531234,42.0996083 138.061141,42.0996083 C136.850692,43.3934443 136.861452,45.2871253 135.995308,46.780013 C134.97046,46.6724175 133.733112,46.2447253 132.910006,47.1027995 C132.221395,47.5493209 131.920128,48.4208445 132.280573,49.1793928 C132.893867,50.6104131 134.475521,51.1591502 135.903851,51.3716513 C135.508438,51.8800401 135.204481,52.5202334 134.626155,52.8457098 C133.975202,52.9990334 133.30273,52.985584 132.643708,53.0232424 C131.952406,54.2740402 130.970597,55.333856 130.290056,56.5927234 C130.031827,57.273265 129.270588,57.5826021 128.627705,57.2194673 C127.522161,56.985447 127.113298,55.8933526 126.580701,55.0433481 C125.663449,55.2800582 124.883381,55.9041122 123.941921,56.0547459 C123.299038,56.0655054 122.650775,55.6351234 122.414065,55.0379683 C122.438274,54.1045773 122.709952,53.2034649 122.865966,52.2889031 C122.683053,52.2243457 122.319918,52.0952311 122.139696,52.0306738 C121.378458,50.2983861 120.910417,48.4020153 120.996494,46.5056444 C120.972285,45.6206714 121.851878,45.3220938 122.500141,44.9858579 C123.565336,45.9784264 125.16313,45.8385523 126.311712,45.0692444 C126.696366,44.0928152 126.59953,43.0141702 126.680226,41.9893229 C126.871209,41.9301454 127.255862,41.8117904 127.446844,41.7526128 C127.247793,41.0424825 127.011083,40.3431117 126.690986,39.6787094 C128.070898,39.9853566 129.324386,39.2429476 130.645121,38.9874082 C131.928197,38.7641476 133.130577,38.2342397 134.408274,37.9733206 C134.2684,37.5967363 134.131215,37.220152 133.991341,36.8462576 Z M124.366923,56.4851279 C125.079743,56.291456 125.693038,55.8637638 126.319782,55.4898694 C126.817411,56.2780065 127.245103,57.1737392 128.03862,57.7117167 C128.907454,58.1797572 129.900022,58.3465302 130.787685,58.7769122 C131.427878,59.0566606 132.008894,59.4789729 132.694815,59.6511258 C133.469503,59.6134673 134.222672,59.1292875 135.005429,59.4144156 C135.836604,59.6968538 136.705438,59.5865685 137.563512,59.5811887 C138.133768,59.9658426 138.550701,60.5387887 139.139786,60.9073033 C140.062418,61.4694899 141.149133,61.7519281 141.999137,62.4378494 C142.841072,63.1694989 143.319872,64.2481439 144.245193,64.8964068 C144.756272,65.2460922 145.318459,65.5123911 145.867196,65.8002091 C145.573998,66.1633439 145.28349,66.5264788 144.995672,66.8923035 C145.474472,68.6837687 144.527632,70.3837778 144.56798,72.1644835 C144.527632,72.6701824 144.640607,73.3157554 144.124148,73.6250925 C142.765755,74.5988319 141.367013,75.5214633 140.094697,76.6135578 C139.29042,77.3452072 138.198326,77.565778 137.286454,78.1064454 C136.780755,78.596005 136.541355,79.2846163 136.213189,79.8925309 C135.336285,79.4218005 134.631535,78.7062904 134.050519,77.9100836 C132.205256,77.9719511 130.623602,78.9914185 128.888624,79.4809781 C128.04131,79.7311376 127.602858,80.5676927 126.914247,81.0545624 C126.013134,81.5495017 124.91028,81.5495017 124.044137,82.117068 C123.506159,82.5770388 123.167233,83.2172321 122.801408,83.8143872 C121.975613,85.2830659 120.950766,86.6280098 119.979716,88.0025424 C119.019426,89.4685312 117.201062,89.8504953 115.751213,90.646702 C116.950903,92.6372189 117.884294,94.7837493 119.242687,96.6801202 C120.095381,97.7641449 119.917849,99.4480147 119.019426,100.445963 C118.277017,101.00546 117.311348,101.110365 116.469413,101.460051 C115.648997,101.739799 115.10564,102.449929 114.516554,103.036325 C113.499777,102.794235 112.448031,102.987907 111.423183,102.842653 C110.839478,102.654361 110.376817,102.229359 109.873808,101.893123 C108.935037,101.909262 108.041994,101.634893 107.232338,101.169543 C106.4711,100.714952 105.580747,101.123815 104.806059,101.325556 C103.781212,101.589165 103.071082,102.42303 102.15383,102.888381 C100.72819,102.455309 99.2568211,102.178251 97.8258008,101.750559 C96.071994,101.207201 95.2300592,99.4507046 93.9900209,98.2483247 C93.0969782,97.4010101 92.4917535,96.325055 91.7977624,95.3271067 C90.563104,93.9149156 88.6640432,93.3043111 87.4078657,91.916329 C86.9048567,91.3003447 87.4509039,90.4933784 87.6795443,89.8720144 C89.2638882,86.7786435 90.7756051,83.6476142 92.3733984,80.5596231 C93.0727692,79.2765466 92.550931,77.7648297 93.0243512,76.4198858 C93.6457153,73.3238251 95.3941423,70.4940632 97.8526997,68.5223755 C99.1949537,67.3630339 101.18816,67.575535 102.522345,66.3758451 C103.700516,66.4861305 104.773781,67.0052788 105.395145,68.0489552 C106.134864,66.9084428 106.828855,65.7248922 107.748797,64.7215641 C108.440098,63.9414967 109.569851,64.0033641 110.514001,63.8527304 C110.390266,62.9408584 110.239633,62.0343663 110.048651,61.1332539 C110.734572,60.6329348 111.382835,60.0895775 112.044547,59.5569797 C113.542815,58.3465302 115.619408,58.3734291 117.435082,58.6020695 C118.150592,58.7500134 118.742368,58.2470044 119.336833,57.9349774 C119.729557,57.9753257 120.141109,58.1582381 120.533833,58.0506426 C121.254723,57.6041212 121.749662,56.8832313 122.319918,56.2699369 C122.99508,56.3694627 123.678312,56.579274 124.366923,56.4851279 Z M170.767486,57.0500043 C173.960383,57.7413055 177.236666,57.3835504 180.469911,57.6068111 C180.391905,59.4682134 179.79475,61.2408494 179.143797,62.9677573 C178.132399,65.6226765 177.570212,68.4228496 177.204388,71.2337823 C176.989197,73.0037284 176.246788,74.6472498 175.412922,76.2020049 C174.5145,77.829387 173.056581,79.026387 171.757365,80.3175332 C170.9235,81.1675377 169.850235,81.7055152 168.782349,82.2004546 C167.305601,82.8702366 166.331861,84.2151805 165.269356,85.3799019 C163.641974,87.2628233 161.799401,89.01932 160.653508,91.2599964 C160.045594,92.4005088 159.811574,93.7158639 159.063785,94.7837493 C158.47201,95.6256842 157.815677,96.4299606 157.334187,97.3472124 C155.548102,101.00815 153.326254,104.445826 150.905355,107.71404 C150.54222,106.958181 150.294751,106.105487 149.692216,105.494882 C147.782396,103.832532 145.321148,102.869552 142.811483,102.635532 C141.68173,102.622082 140.546598,102.541386 139.454503,102.232048 C139.933303,101.177612 140.678402,100.265741 141.119544,99.1978551 C141.122234,98.3478506 140.059728,98.2779135 139.492162,97.930918 C139.215103,96.9544887 138.932665,95.9807494 138.604499,95.0204595 C138.889627,94.7783696 139.174755,94.5362797 139.459883,94.2941898 C139.457193,93.5302617 139.220483,92.6883268 139.583618,91.9808863 C140.2534,91.1228122 141.079195,90.3804031 141.587584,89.401284 C142.095973,88.443684 143.166548,87.4161469 142.558634,86.2568053 C141.488058,83.4539422 138.246744,82.5689692 136.65971,80.15345 C136.974427,79.5267062 137.165409,78.7762275 137.722216,78.3108769 C138.373168,77.9773308 139.110198,77.8804949 139.809568,77.6841331 C141.141063,76.0056431 143.158479,75.1206701 144.715924,73.6977195 C145.140926,73.3399644 144.939184,72.7320498 144.987602,72.2532498 C144.901526,71.3575171 145.218933,70.5075126 145.447573,69.660198 C145.684283,68.7940541 145.614346,67.887562 145.563238,67.0052788 C145.845677,66.6959417 146.130805,66.3892945 146.418623,66.0826473 C146.273369,65.7114428 146.130805,65.3402383 145.988241,64.9717237 C146.313717,64.6865956 146.636504,64.3987776 146.988879,64.1432383 C147.779706,63.5084248 148.852971,63.957636 149.767533,63.9038383 C150.891906,64.0195034 151.838746,63.3201326 152.761378,62.7929146 C153.818504,62.9489281 154.883699,62.9623775 155.948895,62.9865865 C157.581657,63.0161753 159.160621,63.7639641 160.801452,63.4573169 C161.527722,63.2340562 162.170605,62.8251933 162.800039,62.4082607 C165.239767,63.0726629 167.779021,63.1210809 170.288686,62.951618 C170.493118,60.988 170.560365,59.0109325 170.767486,57.0500043 Z M135.118404,96.6424618 C136.194359,96.349264 137.203067,95.8570146 138.235984,95.440082 C138.550701,96.3896123 138.698645,97.4063899 139.163995,98.2967427 C139.597067,98.7405742 140.188843,98.9719045 140.718751,99.2785517 C140.118906,100.05055 139.441054,100.798338 139.091368,101.729039 C138.975703,102.027617 138.981083,102.482208 139.320009,102.640911 C140.769858,103.474777 142.515596,102.778096 144.043452,103.299934 C145.856436,103.87019 147.540306,104.782062 149.154238,105.771941 C150.07956,106.285709 150.386207,107.525748 150.152187,108.494107 C149.197277,110.492694 147.319735,111.805359 145.547099,113.023878 C143.989654,114.323094 142.219708,115.401739 140.939321,117.002222 C138.10418,120.423759 135.078056,123.702732 131.694177,126.591672 C130.464899,127.629968 128.923593,128.259402 127.836878,129.472541 C126.206806,131.304355 124.006478,132.452937 122.058999,133.894717 C119.589682,135.484441 117.270999,137.378121 114.497725,138.432557 C113.155471,138.943636 111.896604,139.659146 110.53283,140.113737 C108.889309,140.605987 107.259237,139.785571 105.629165,139.637627 C103.991024,139.417056 102.172659,139.887787 101.110154,141.213901 C100.512999,141.875614 100.72012,142.825144 100.70936,143.6348 C98.56552,143.567553 96.5346547,142.505047 94.3800547,142.771346 C92.9947625,142.940809 92.7768816,144.60047 91.8434905,145.385917 C90.0385759,145.584969 88.3170477,144.864079 86.6304881,144.328791 C84.2633869,143.562173 81.7241329,143.618661 79.3462722,142.884322 C79.5157351,142.43511 79.685198,141.988589 79.8546609,141.544758 C79.6825081,141.49634 79.3382025,141.399504 79.1633598,141.351086 C78.5500654,140.869596 77.8264856,140.565638 77.097526,140.310099 C77.9824991,139.944274 78.8755418,139.608038 79.7847239,139.309461 C79.373171,138.502495 79.0772834,137.593313 78.4128811,136.958499 C77.5628766,136.439351 76.5622384,136.240299 75.6180878,135.963241 C73.6625394,135.368775 71.6720225,136.520047 69.7110943,135.97669 C69.5685303,135.293459 70.197964,134.803899 70.5126809,134.273991 C71.2066719,133.426676 71.5805663,132.39376 71.9275618,131.371602 C72.2476585,130.325236 73.121872,129.623175 73.8454518,128.859247 C74.7869125,129.02602 75.7310631,129.187413 76.6805934,129.308458 C76.0511597,127.745634 75.3921372,126.188189 74.9859642,124.550047 C76.3497372,123.783429 77.8668339,123.336908 79.4404182,123.363806 C79.6905778,122.895766 79.9111486,122.406206 80.2393149,121.986584 C81.1431172,121.991964 82.0872678,122.438485 82.9534116,121.991964 C84.2580071,121.575031 85.051524,120.297334 85.3178229,119.019638 C85.2720948,118.196532 85.0326948,117.403015 84.9600678,116.585289 C86.2673533,116.429276 87.5289106,116.055381 88.7823983,115.673417 C88.9142028,114.710438 88.9491713,113.70173 89.3849332,112.814067 C89.6808208,112.144285 90.5362051,112.243811 91.1252905,112.042069 C92.5643804,111.797289 93.7048928,110.788581 95.0982547,110.409307 C96.0504749,110.10535 97.0564929,110.078451 98.0463716,110.078451 C98.8829267,108.838413 99.7194818,107.514988 99.8485964,105.987132 C100.026129,104.900417 99.474702,103.897089 99.1788144,102.885691 C100.198282,102.856102 101.131673,103.313383 102.121552,103.461327 C103.35621,103.014806 104.329949,102.006098 105.642615,101.742489 C106.756228,101.454671 107.805284,102.067965 108.8651,102.301986 C109.889947,102.511797 110.723812,103.189648 111.702932,103.515125 C112.832684,103.63348 113.989336,103.447878 115.0895,103.173509 C115.780801,102.732368 116.412925,102.18363 117.187613,101.887743 C117.905813,101.589165 118.68857,101.462741 119.382561,101.096916 C119.977026,100.645015 120.259464,99.9133652 120.636049,99.2920012 C121.695865,100.28726 122.551249,101.513848 123.764388,102.334264 C125.130851,103.001356 126.688296,103.084743 128.154285,103.412909 C128.361406,101.696761 129.883883,100.400235 129.71442,98.624909 C130.343854,98.0600326 130.943699,97.3525921 131.809842,97.1616101 C132.901937,96.9249 134.03438,96.9356595 135.118404,96.6424618 Z M23.1814164,100.575078 C24.7765199,101.785527 26.3877626,103.060534 27.5793829,104.674467 C27.5740031,105.623997 27.2296975,106.552008 27.3292233,107.509608 C27.5713132,109.688417 28.343311,111.754251 28.8759088,113.871193 C29.2202144,115.165029 28.9512256,116.507283 28.6042301,117.77422 C30.1374661,118.347166 31.6034549,119.094955 32.9403291,120.041795 C33.2039381,120.230087 33.5105853,120.450658 33.5347943,120.808413 C33.6208707,121.884368 32.7332078,122.855418 33.0748235,123.936753 C33.3626415,125.128373 33.7499853,126.293094 34.1104303,127.465885 C34.4090078,127.401328 34.7075853,127.336771 35.0061629,127.269523 C35.1863854,126.580912 35.3208797,125.865402 35.6705652,125.241348 C36.4264236,124.407483 37.6099742,124.24071 38.6079226,123.834537 C39.5251743,123.538649 40.0470125,122.656366 40.8405294,122.166806 C41.2251833,122.177566 41.6044575,122.252883 41.9864215,122.31475 C41.424235,123.059849 40.7867316,123.743081 40.10619,124.380584 C40.4397361,126.067144 40.8136305,127.901647 42.118226,129.130926 C42.8095272,129.776499 43.5465564,130.556566 44.5606441,130.594225 C45.6446688,130.653402 46.7798015,130.736789 47.8234779,130.387103 C48.8698442,129.870645 48.4475319,128.536461 48.4098734,127.624589 C49.4912083,127.379809 50.6075117,127.326011 51.6727072,127.016674 C52.3424893,126.309233 52.6383769,125.313975 53.3780961,124.663022 C54.1500938,124.004 55.2072197,123.858746 56.0410849,123.304629 C56.3934602,122.957633 56.6032714,122.503042 56.8668804,122.094179 C57.9482153,122.306681 59.0295502,122.669815 60.1431637,122.618708 C61.046966,122.053831 61.6656401,121.136579 62.5586829,120.547494 C62.5290941,119.705559 62.316593,118.769478 62.8653301,118.040519 C63.5727705,116.961874 64.0461908,115.759494 64.3931863,114.522145 C65.2001526,114.793824 66.0367077,115.027844 66.7629774,115.490505 C67.3036448,115.84288 67.4408291,116.526112 67.6990583,117.077539 C68.7750134,117.327698 69.8697977,117.491782 70.9430629,117.755391 C71.8361056,117.970582 72.5731349,118.548907 73.4204495,118.877074 C75.0155529,118.538148 74.988654,116.157597 76.642935,115.923577 C77.7565485,115.700316 78.8782317,115.390979 80.021434,115.417878 C80.8041913,115.910128 81.2856812,116.741303 81.8882161,117.424534 C82.2916992,116.967253 82.7113217,116.528802 83.112115,116.074211 C83.9674993,116.846208 84.4920274,117.879125 84.9170296,118.933561 C84.2257285,119.958409 83.6716116,121.279143 82.4154341,121.714905 C81.673025,121.806361 80.9602048,121.462056 80.2231756,121.443227 C79.6663688,121.822501 79.2897845,122.395447 78.870162,122.909215 C77.6086047,123.092128 76.2905597,123.240072 75.1742563,123.904474 C74.9832743,124.079317 74.5313731,124.186912 74.6147597,124.515078 C74.8729889,126.059074 75.2953012,127.605759 76.1210968,128.953393 C75.3679282,128.692474 74.6013102,128.32127 73.7862742,128.388517 C73.1837394,128.759721 72.7076293,129.300389 72.258418,129.841056 C71.394964,130.908942 71.3330966,132.38031 70.5530292,133.499303 C70.0661595,134.317029 69.2726426,135.00833 69.1220089,135.990139 C69.6196381,136.611503 70.5073011,136.536187 71.2228112,136.530807 C72.570445,136.501218 73.9369079,135.890614 75.2710923,136.347894 C76.2206226,136.657232 77.2131912,136.853593 78.127753,137.257077 C78.5339261,137.727807 78.7356676,138.335722 79.0046564,138.889838 C77.9771193,139.287942 76.8688856,139.777501 76.5057507,140.918014 C77.3799642,141.108996 78.248798,141.326877 79.1014924,141.606625 C78.9831373,141.97245 78.8594025,142.338274 78.7410474,142.706789 C77.1324946,142.994607 75.900526,144.549362 74.1870675,144.242715 C72.3660135,144.102841 70.5826179,143.696668 68.8046022,143.306634 C67.7663055,143.067234 66.7441482,143.451888 65.7327504,143.621351 C64.9284739,143.777364 64.0999885,143.798883 63.3145413,144.038283 C62.5882716,144.538603 62.0798828,145.305221 61.3051952,145.746362 C60.5036086,146.198263 60.0032895,146.98909 59.3119884,147.570106 C57.9535951,147.970899 56.5118153,147.22849 55.1668714,147.728809 C54.5455073,147.895582 53.9268331,148.221059 53.2651208,148.118843 C52.0815702,147.944 50.935678,147.435612 49.7225386,147.543207 C49.090415,147.564726 48.7595588,148.18609 48.3506959,148.573434 C46.887397,148.659511 45.1927677,148.379762 44.0253564,149.479926 C42.5781968,150.800661 40.6764462,151.526931 39.3691608,153.014439 L39.0894125,153.014439 C38.1990596,152.602886 37.2468394,152.358106 36.2731,152.226302 C34.9200865,152.067598 33.8656505,151.142277 32.7708662,150.418697 C32.5260864,149.676288 32.5018774,148.584194 31.5900055,148.347484 C30.0594594,147.809506 28.4778054,147.252699 26.8262143,147.462511 C26.858493,146.52643 27.2754256,145.410126 26.6809604,144.587021 C25.588866,143.761225 24.0125917,143.989866 22.7967625,144.404108 C21.7234973,144.818351 22.3341018,146.131016 22.3394816,146.970261 C21.537895,145.913135 21.1666905,144.506324 21.6481804,143.234007 C21.9897962,142.574985 23.071131,142.222609 22.8855288,141.375295 C22.5277737,139.368638 21.3496029,137.64711 20.0934253,136.092355 C19.0013309,134.78238 18.759241,133.023193 17.8473691,131.611002 C17.5945196,131.102613 16.9677758,131.250557 16.5104949,131.19407 C16.4082791,130.21764 16.4513174,129.230452 16.6261601,128.264782 C17.1802769,128.418105 17.7343938,128.595638 18.30465,128.692474 C19.0551287,128.845798 19.6522837,128.219054 20.1310838,127.737564 C21.4491287,126.336132 21.3630523,124.254159 21.3119445,122.462694 C20.9918478,119.856193 20.7524478,117.090988 19.2918388,114.828793 C18.2400927,113.104575 16.722996,111.703143 15.7949847,109.900918 C15.6900791,107.985718 17.1802769,106.527799 18.016832,104.940765 C18.7753803,105.120988 19.6576635,105.672415 20.3839332,105.123678 C21.4545085,104.295192 21.6804591,102.858792 22.1189108,101.659102 C22.4820456,101.911952 22.8451805,102.164801 23.2083153,102.420341 C23.192176,101.804356 23.1867962,101.188372 23.1814164,100.575078 Z" id="sa_map" fill="#D1E2EE" sketch:type="MSShapeGroup"></path>
    </g>
</svg>