<?xml version="1.0" encoding="UTF-8" standalone="no"?>
<svg width="84px" height="68px" viewBox="0 0 84 68" version="1.1" xmlns="http://www.w3.org/2000/svg" xmlns:xlink="http://www.w3.org/1999/xlink" xmlns:sketch="http://www.bohemiancoding.com/sketch/ns">
    <!-- Generator: Sketch 3.0.4 (8053) - http://www.bohemiancoding.com/sketch -->
    <title>schedule</title>
    <desc>Created with Sketch.</desc>
    <defs></defs>
    <g id="Page-1" stroke="none" stroke-width="1" fill="none" fill-rule="evenodd" sketch:type="MSPage">
        <g id="schedule" sketch:type="MSArtboardGroup" transform="translate(0.000000, 0.764788)">
            <path d="M29.4613495,28.715253 C23.6051727,29.1343569 12.0456543,31.2829411 12.0456543,31.2829411 L17.5939491,53.694463 L57.5670293,50.2110475 L47.9241943,28.715253 C47.9241943,28.715253 35.564686,28.2784609 29.4613495,28.715253 Z M44.4210351,35.3292345 L43.8395315,33.5311493 L42.8581745,33.5971057 L26.4720109,34.6984109 L25.4906538,34.7643673 L26.0721574,36.5624525 L27.0535145,36.4964961 L43.4396781,35.395191 L44.4210351,35.3292345 Z M23.6625898,36.735257 L23.0960867,34.9362172 L22.1125387,34.9953083 L18.9596597,35.1847319 L17.9761116,35.2438231 L18.5426147,37.042863 L19.5261627,36.9837718 L22.6790417,36.7943482 L23.6625898,36.735257 Z M46.2937158,38.9350694 L45.7122122,37.1369842 L44.7308552,37.2029407 L28.3446915,38.3042458 L27.3633345,38.3702023 L27.9448381,40.1682875 L28.9261951,40.102331 L45.3123588,39.0010259 L46.2937158,38.9350694 Z M25.5352704,40.341092 L24.9687674,38.5420521 L23.9852193,38.6011433 L20.8323403,38.7905669 L19.8487923,38.8496581 L20.4152953,40.6486979 L21.3988434,40.5896068 L24.5517224,40.4001831 L25.5352704,40.341092 Z M47.1663964,42.5409044 L46.5848929,40.7428192 L45.6035358,40.8087757 L29.2173722,41.9100808 L28.2360152,41.9760373 L28.8175188,43.7741225 L29.7988758,43.708166 L46.1850394,42.6068609 L47.1663964,42.5409044 Z M26.4079511,43.9469269 L25.8414481,42.1478871 L24.8579,42.2069782 L21.705021,42.3964019 L20.7214729,42.455493 L21.287976,44.2545329 L22.2715241,44.1954417 L25.424403,44.0060181 L26.4079511,43.9469269 Z M49.0390771,46.1467394 L48.4575735,44.3486542 L47.4762165,44.4146106 L31.0900529,45.5159157 L30.1086958,45.5818722 L30.6901994,47.3799574 L31.6715565,47.314001 L48.0577201,46.2126958 L49.0390771,46.1467394 Z M28.2806318,47.5527619 L27.7141287,45.753722 L26.7305807,45.8128132 L23.5777017,46.0022368 L22.5941536,46.061328 L23.1606567,47.8603678 L24.1442047,47.8012767 L27.2970837,47.611853 L28.2806318,47.5527619 Z" id="Path-62" fill="#6F798E" sketch:type="MSShapeGroup"></path>
            <path d="M47.9355695,28.8395339 L46.8758839,5.2954934 L10.1223503,7.26751188 L12.0348006,31.3069083 L47.9355695,28.8395339 Z M40.3763089,13.7563968 L41.3736287,13.6832304 L41.2272959,11.6885909 L40.2299762,11.7617573 L23.5772757,12.9834495 L22.579956,13.0566159 L22.7262888,15.0512554 L23.7236085,14.978089 L40.3763089,13.7563968 Z M19.2770499,15.3085002 L20.2748991,15.2429497 L20.143798,13.2472512 L19.1459487,13.3128017 L15.9472256,13.5229319 L14.9493764,13.5884825 L15.0804775,15.584181 L16.0783268,15.5186304 L19.2770499,15.3085002 Z M41.3763089,17.7563968 L42.3736287,17.6832304 L42.2272959,15.6885909 L41.2299762,15.7617573 L24.5772757,16.9834495 L23.579956,17.0566159 L23.7262888,19.0512554 L24.7236085,18.978089 L41.3763089,17.7563968 Z M20.2770499,19.3085002 L21.2748991,19.2429497 L21.143798,17.2472512 L20.1459487,17.3128017 L16.9472256,17.5229319 L15.9493764,17.5884825 L16.0804775,19.584181 L17.0783268,19.5186304 L20.2770499,19.3085002 Z M41.3763089,21.7563968 L42.3736287,21.6832304 L42.2272959,19.6885909 L41.2299762,19.7617573 L24.5772757,20.9834495 L23.579956,21.0566159 L23.7262888,23.0512554 L24.7236085,22.978089 L41.3763089,21.7563968 Z M20.2770499,23.3085002 L21.2748991,23.2429497 L21.143798,21.2472512 L20.1459487,21.3128017 L16.9472256,21.5229319 L15.9493764,21.5884825 L16.0804775,23.584181 L17.0783268,23.5186304 L20.2770499,23.3085002 Z M42.3763089,25.7563968 L43.3736287,25.6832304 L43.2272959,23.6885909 L42.2299762,23.7617573 L25.5772757,24.9834495 L24.579956,25.0566159 L24.7262888,27.0512554 L25.7236085,26.978089 L42.3763089,25.7563968 Z M21.2770499,27.3085002 L22.2748991,27.2429497 L22.143798,25.2472512 L21.1459487,25.3128017 L17.9472256,25.5229319 L16.9493764,25.5884825 L17.0804775,27.584181 L18.0783268,27.5186304 L21.2770499,27.3085002 Z" id="Path-51" fill="#99A4BB" sketch:type="MSShapeGroup"></path>
            <path d="M69.6275665,48.6231349 L69.4486811,49.6070048 L70.0149198,51.7761173 L71.4164209,49.9647757 L71.5953063,48.9809058 L73.5953063,37.9809058 L73.7741918,36.9970359 L71.8064519,36.639265 L71.6275665,37.6231349 L69.6275665,48.6231349 Z" id="Line" fill="#B0BACD" sketch:type="MSShapeGroup" transform="translate(71.448681, 44.139265) rotate(-265.000000) translate(-71.448681, -44.139265) "></path>
        </g>
    </g>
</svg>