<?xml version="1.0" encoding="UTF-8" standalone="no"?>
<svg width="100px" height="68px" viewBox="0 0 100 68" version="1.1" xmlns="http://www.w3.org/2000/svg" xmlns:xlink="http://www.w3.org/1999/xlink" xmlns:sketch="http://www.bohemiancoding.com/sketch/ns">
    <!-- Generator: Sketch 3.0.4 (8053) - http://www.bohemiancoding.com/sketch -->
    <title>time</title>
    <desc>Created with Sketch.</desc>
    <defs></defs>
    <g id="Page-1" stroke="none" stroke-width="1" fill="none" fill-rule="evenodd" sketch:type="MSPage">
        <g id="time" sketch:type="MSArtboardGroup" transform="translate(0.000000, 0.764788)">
            <g id="Oval-1-+-Line-+-Line" sketch:type="MSLayerGroup" transform="translate(7.600001, 2.835213)" stroke="#99A4BB">
                <circle id="Oval-1" stroke-width="3.79999977" stroke-linecap="square" sketch:type="MSShapeGroup" cx="18.0999989" cy="18.6999989" r="18.3584307"></circle>
                <path d="M10.8364459,14.9484935 L18.0999989,19.8183857" id="Line" stroke-width="3.79999995" stroke-linecap="round" sketch:type="MSShapeGroup"></path>
                <path d="M27.7581298,10.7978918 L18.2596374,19.9771071" id="Line" stroke-width="3.79999995" stroke-linecap="round" sketch:type="MSShapeGroup"></path>
            </g>
            <g id="Group" sketch:type="MSLayerGroup" transform="translate(48.000000, 26.235212)">
                <g id="Rectangle-1-+-Path-4" sketch:type="MSShapeGroup">
                    <path d="M36.0470471,28.375 L41.9194961,0.125 L5.41949611,0.125 L-0.452952863,28.375 L36.0470471,28.375 Z M7,6.31257795 L10.4461865,6.31257795 L11.0448128,3 L7.59862626,3 L7,6.31257795 Z M11.3077332,6.31257795 L14.7539197,6.31257795 L15.3525459,3 L11.9063594,3 L11.3077332,6.31257795 Z M15.6154663,6.31257795 L19.0616528,6.31257795 L19.6602791,3 L16.2140926,3 L15.6154663,6.31257795 Z M19.9231995,6.31257795 L23.369386,6.31257795 L23.9680122,3 L20.5218257,3 L19.9231995,6.31257795 Z M24.3548412,6.31257795 L27.8010278,6.31257795 L28.399654,3 L24.9534675,3 L24.3548412,6.31257795 Z M28.7000122,6.31257795 L32.1461987,6.31257795 L32.744825,3 L29.2986385,3 L28.7000122,6.31257795 Z M33.0999756,6.31257795 L36.5461621,6.31257795 L37.1447884,3 L33.6986018,3 L33.0999756,6.31257795 Z M6,11.3125779 L9.44618652,11.3125779 L10.0448128,8 L6.59862626,8 L6,11.3125779 Z M10.3077332,11.3125779 L13.7539197,11.3125779 L14.3525459,8 L10.9063594,8 L10.3077332,11.3125779 Z M14.6154663,11.3125779 L18.0616528,11.3125779 L18.6602791,8 L15.2140926,8 L14.6154663,11.3125779 Z M18.9231995,11.3125779 L22.369386,11.3125779 L22.9680122,8 L19.5218257,8 L18.9231995,11.3125779 Z M23.3548412,11.3125779 L26.8010278,11.3125779 L27.399654,8 L23.9534675,8 L23.3548412,11.3125779 Z M27.7000122,11.3125779 L31.1461987,11.3125779 L31.744825,8 L28.2986385,8 L27.7000122,11.3125779 Z M32.0999756,11.3125779 L35.5461621,11.3125779 L36.1447884,8 L32.6986018,8 L32.0999756,11.3125779 Z M5,16.3125779 L8.44618652,16.3125779 L9.04481278,13 L5.59862626,13 L5,16.3125779 Z M9.30773315,16.3125779 L12.7539197,16.3125779 L13.3525459,13 L9.90635941,13 L9.30773315,16.3125779 Z M13.6154663,16.3125779 L17.0616528,16.3125779 L17.6602791,13 L14.2140926,13 L13.6154663,16.3125779 Z M17.9231995,16.3125779 L21.369386,16.3125779 L21.9680122,13 L18.5218257,13 L17.9231995,16.3125779 Z M22.3548412,16.3125779 L25.8010278,16.3125779 L26.399654,13 L22.9534675,13 L22.3548412,16.3125779 Z M26.7000122,16.3125779 L30.1461987,16.3125779 L30.744825,13 L27.2986385,13 L26.7000122,16.3125779 Z M31.0999756,16.3125779 L34.5461621,16.3125779 L35.1447884,13 L31.6986018,13 L31.0999756,16.3125779 Z M4,21.3125779 L7.44618652,21.3125779 L8.04481278,18 L4.59862626,18 L4,21.3125779 Z M8.30773315,21.3125779 L11.7539197,21.3125779 L12.3525459,18 L8.90635941,18 L8.30773315,21.3125779 Z M12.6154663,21.3125779 L16.0616528,21.3125779 L16.6602791,18 L13.2140926,18 L12.6154663,21.3125779 Z M3,26.3125779 L6.44618652,26.3125779 L7.04481278,23 L3.59862626,23 L3,26.3125779 Z M7.30773315,26.3125779 L10.7539197,26.3125779 L11.3525459,23 L7.90635941,23 L7.30773315,26.3125779 Z M11.6154663,26.3125779 L15.0616528,26.3125779 L15.6602791,23 L12.2140926,23 L11.6154663,26.3125779 Z M16.9231995,21.3125779 L20.369386,21.3125779 L20.9680122,18 L17.5218257,18 L16.9231995,21.3125779 Z M21.3548412,21.3125779 L24.8010278,21.3125779 L25.399654,18 L21.9534675,18 L21.3548412,21.3125779 Z M25.7000122,21.3125779 L29.1461987,21.3125779 L29.744825,18 L26.2986385,18 L25.7000122,21.3125779 Z M30.0999756,21.3125779 L33.5461621,21.3125779 L34.1447884,18 L30.6986018,18 L30.0999756,21.3125779 Z" id="Rectangle-1" fill="#99A4BB"></path>
                    <path d="M41.3301542,1.22587379 L47.311923,22.7262992 L37.2256721,22.7262999" id="Path-4" stroke="#99A4BB" stroke-width="1.75" stroke-linecap="square"></path>
                </g>
            </g>
        </g>
    </g>
</svg>