<?xml version="1.0" encoding="UTF-8" standalone="no"?>
<svg width="100px" height="68px" viewBox="0 0 100 68" version="1.1" xmlns="http://www.w3.org/2000/svg" xmlns:xlink="http://www.w3.org/1999/xlink" xmlns:sketch="http://www.bohemiancoding.com/sketch/ns">
    <!-- Generator: Sketch 3.0.4 (8053) - http://www.bohemiancoding.com/sketch -->
    <title>what</title>
    <desc>Created with Sketch.</desc>
    <defs></defs>
    <g id="Page-1" stroke="none" stroke-width="1" fill="none" fill-rule="evenodd" sketch:type="MSPage">
        <g id="what" sketch:type="MSArtboardGroup" transform="translate(0.000000, 0.764788)">
            <path d="M23.9699228,8.65632965 C16.7061039,11.9522465 19.2176611,22.2585668 20.0070415,25.980627 C20.9521832,30.437128 24.8242253,36.2352115 29.5,36.2352115 C35.0963108,36.2352115 37.5514651,30.7267093 38.5242567,25.980627 C39.19281,22.7188713 41.2227074,15.2724529 37.9306105,10.9337876 C37.245157,10.0304262 36.2883653,6.0402432 36.2883653,6.0402432 C36.2883653,6.0402432 31.850063,7.62857633 29.5,7.62857633 C27.2171418,7.62857633 25.4032272,8.00597586 23.9699228,8.65632965 Z M25,21.2352115 C26.1045695,21.2352115 27,20.339781 27,19.2352115 C27,18.130642 26.1045695,17.2352115 25,17.2352115 C23.8954305,17.2352115 23,18.130642 23,19.2352115 C23,20.339781 23.8954305,21.2352115 25,21.2352115 Z M34,21.2352115 C35.1045695,21.2352115 36,20.339781 36,19.2352115 C36,18.130642 35.1045695,17.2352115 34,17.2352115 C32.8954305,17.2352115 32,18.130642 32,19.2352115 C32,20.339781 32.8954305,21.2352115 34,21.2352115 Z M24.1785236,27.8386123 C24.3896915,28.3611348 24.6650312,28.8842221 25.0149551,29.3772545 C26.067098,30.8596926 27.5787443,31.7890457 29.6199186,31.7890457 C31.7046903,31.7890458 33.1606874,30.7412404 34.1060137,29.0829941 C34.4176284,28.5363744 34.6531115,27.9566202 34.8250106,27.3776635 C34.9283479,27.0296229 34.9882765,26.7558077 35.0146167,26.5915196 C35.0697379,26.247721 34.8257508,25.903964 33.6863205,25.8633145 C32.5468902,25.822665 31.2457416,27.5716265 31.2457416,27.5716265 C31.2457416,27.5716265 25.0773044,26.3315107 24.6157236,26.394601 C24.1541429,26.4576914 23.8493107,26.7847817 23.9348619,27.1251778 C23.9726554,27.275553 24.0513254,27.5238678 24.1785236,27.8386123 Z" id="Oval-3" fill="#99A4BB" sketch:type="MSShapeGroup"></path>
            <path d="M2.5734999,48.0268249 C2.5734999,48.0268249 1.97396413,40.1135347 4.91925628,38.5957783 C7.86454843,37.0780219 17.778716,33.5666629 17.778716,33.5666629 C17.778716,33.5666629 22.1449949,40.5690077 29.9273184,40.5690076 C37.709642,40.5690075 40.6764732,33.5666629 40.6764732,33.5666629 C40.6764732,33.5666629 50.4451194,34.900177 53.0739112,38.5957781 C55.702703,42.2913792 55.6535138,48.6823852 55.6535138,48.6823852 L2.5734999,48.0268249 Z" id="Path-18" fill="#404C66" sketch:type="MSShapeGroup"></path>
            <path d="M76.4226567,20.9801073 C88.603458,16.2580732 97.8626661,21.3169901 97.5921929,25.0438143 C97.3217198,28.7706386 86.7884534,47.3653267 86.7884534,47.3653267 C86.7884534,47.3653267 64.8332337,38.1571097 63.9042586,34.8468095 C62.9752836,31.5365093 64.2418554,25.7021415 76.4226567,20.9801073 Z M76.9137985,23.9132212 L80.7574606,22.8110689 L82.0734921,27.4006161 L83.4997413,36.128641 L81.6700108,36.6533078 L78.22983,28.5027684 L76.9137985,23.9132212 Z M81.15273,38.3704931 L84.812365,37.3211097 L85.8286691,40.8653832 L82.1690341,41.9147667 L81.15273,38.3704931 Z" id="Path-14" stroke="#99A4BB" stroke-linecap="round" fill="#99A4BB" sketch:type="MSShapeGroup"></path>
            <path d="M58.0113396,16.7477306 C60.5701342,14.171961 63.4927935,14.4097154 63.845398,15.3864873 C64.1980025,16.3632593 63.6256417,22.2749023 63.6256417,22.2749023 C63.6256417,22.2749023 57.0105797,22.4188257 56.4005323,21.6833883 C55.7904849,20.9479509 55.452545,19.3235003 58.0113396,16.7477306 Z" id="Path-15" stroke="#99A4BB" stroke-linecap="round" fill="#99A4BB" sketch:type="MSShapeGroup" transform="translate(60.000000, 18.501570) rotate(24.000000) translate(-60.000000, -18.501570) "></path>
            <path d="M46.2570873,12.7917842 C47.8563339,11.1819281 49.6829959,11.3305247 49.9033737,11.9410071 C50.1237515,12.5514896 49.7660261,16.2462664 49.7660261,16.2462664 C49.7660261,16.2462664 45.6316123,16.3362186 45.2503327,15.8765702 C44.8690531,15.4169218 44.6578406,14.4016402 46.2570873,12.7917842 Z" id="Path-16" stroke="#99A4BB" stroke-linecap="round" fill="#99A4BB" sketch:type="MSShapeGroup" transform="translate(47.500000, 14.001570) rotate(24.000000) translate(-47.500000, -14.001570) "></path>
        </g>
    </g>
</svg>