<?xml version="1.0" encoding="UTF-8" standalone="no"?>
<svg width="100px" height="68px" viewBox="0 0 100 68" version="1.1" xmlns="http://www.w3.org/2000/svg" xmlns:xlink="http://www.w3.org/1999/xlink" xmlns:sketch="http://www.bohemiancoding.com/sketch/ns">
    <!-- Generator: Sketch 3.0.4 (8053) - http://www.bohemiancoding.com/sketch -->
    <title>where</title>
    <desc>Created with Sketch.</desc>
    <defs></defs>
    <g id="Page-1" stroke="none" stroke-width="1" fill="none" fill-rule="evenodd" sketch:type="MSPage">
        <g id="where" sketch:type="MSArtboardGroup" transform="translate(0.000000, 0.764788)">
            <g id="Oval-2-+-Path-14" sketch:type="MSLayerGroup" transform="translate(73.000000, 40.235212)" fill="#99A4BB">
                <path d="M12.5,15 C19.4035594,15 25,11.6421356 25,7.5 C25,3.35786438 19.4035594,0 12.5,0 C5.59644063,0 0,3.35786438 0,7.5 C0,11.6421356 5.59644063,15 12.5,15 Z M10.8123096,6.15121006 L14.9111616,2.03687665 L14.1686494,7.50494022 L9.65194822,12.9094407 L10.8123096,6.15121006 Z" id="Oval-2" sketch:type="MSShapeGroup"></path>
            </g>
            <g id="Group" sketch:type="MSLayerGroup" transform="translate(2.000000, 5.235212)" stroke="#99A4BB" stroke-linecap="square">
                <path d="M0.200525079,38.134155 L17.0477712,34.7160163 L33.7275389,36.4856963 L50.0496855,34.7160156 L64.4729124,36.6372237 L67.4472139,3.39450213 L52.6651074,1.39115028 L37.7633729,3.39450216 L23.400589,-0.136884042 L6.45764187,3.39450213 L0.200525079,38.134155 Z" id="Path-10" stroke-width="2.75" sketch:type="MSShapeGroup"></path>
                <path d="M22.5,1.5 L17.5,34.5" id="Line" stroke-width="1.75" sketch:type="MSShapeGroup"></path>
                <path d="M36.5,4.5 L34,35" id="Line" stroke-width="1.75" sketch:type="MSShapeGroup"></path>
                <path d="M52.5,2.5 L50.5,34.5" id="Line" stroke-width="1.75" sketch:type="MSShapeGroup"></path>
                <path d="M10.3686127,27.5447068 L18.9670491,25.6831131 C18.9670491,25.6831131 28.2063309,30.2718716 28.74805,27.6704118 C29.3932778,24.5718794 19.8117406,20.4830788 19.8117406,20.4830788 C19.8117406,20.4830788 12.0375892,15.7040562 12.1111265,11.9720053 C12.1846639,8.23995444 21.953814,6.3313503 21.953814,6.3313503 C21.953814,6.3313503 25.3448707,8.38418348 28.7480492,7.44238314 C32.1512278,6.5005828 36.2181059,8.31045384 36.2181059,8.31045384 C36.2181059,8.31045384 39.8486609,8.11987182 44.301645,9.52558137 C48.7546291,10.9312909 51.8896984,13.2576323 51.8896984,13.2576323 C51.8896984,13.2576323 62.9918719,17.4027596 56.398684,20.0063681 C54.530303,20.74418 51.345724,21.1346773 51.345724,21.1346773 C51.345724,21.1346773 46.3795664,21.1741917 42.292191,20.0063679 C38.2048156,18.8385441 35.5502457,16.6216747 35.5502457,16.6216747 C35.5502457,16.6216747 33.9826466,16.6290483 33.7431159,16.621675 C28.9899574,16.4753603 34.9175327,23.3802876 34.9175327,23.3802876 C34.9175327,23.3802876 44.3537689,31.5633698 49.0648371,30.1932833 C49.684023,30.0132098 50.803366,29.6720927 50.803366,29.6720927 C50.803366,29.6720927 58.518609,26.3212096 59.8035549,24.9080192" id="Path-15" stroke-width="0.75" stroke-dasharray="2" sketch:type="MSShapeGroup"></path>
                <path d="M58,23 L61,26" id="Line" stroke-width="1.75" sketch:type="MSShapeGroup"></path>
                <path d="M62,23 L58,26" id="Line" stroke-width="1.75" sketch:type="MSShapeGroup"></path>
            </g>
        </g>
    </g>
</svg>