<svg width="443" height="242" viewBox="0 0 443 242" xmlns="http://www.w3.org/2000/svg"><title>ruby_camp</title><desc>Created with Sketch.</desc><g fill="none" fill-rule="evenodd"><path d="M226.784 34.907l157.117-25.841 50.043 114.875-142.76 46.099-65.63-110.395 1.23-24.738z" fill="#9198A6"/><path d="M156.927 173.517l134.508-3.114-65.075-135.546-69.433 138.661z" fill="#1C2230"/><path d="M156.927 173.517l121.38-30.383-51.947-108.278-69.433 138.661z" fill="#3D475A"/><path d="M156.927 173.517l94.501-23.572-25.067-115.089-69.433 138.661z" id="Path-7" fill="#465065"/><g><path d="M351.483 120.525l-64.592-44.606v-20.832l65.854-13.026 14.963 15.602-16.225 62.862z" fill="#D23838"/><path d="M351.483 120.525l-64.592-44.606v-20.832l6.863-1.251.717 20.351 57.012 46.338z" fill="#B12828"/><path d="M351.483 120.525l-29.545-50.037-3.787-21.583 34.594-6.843 14.963 15.602-16.225 62.862z" fill="#EF7D7D"/><path d="M351.483 120.525l-4.895-55.067-3.659-21.242 9.816-2.155 14.963 15.602-16.225 62.862z" id="Path-12" fill="#FC9B9B"/></g><path d="M26.073 199.132l59.338 12.378" stroke="#99A4BB" stroke-width="5" stroke-linecap="round" stroke-linejoin="round"/><path d="M26 211.504l63.982-12.409" stroke="#99A4BB" stroke-width="5" stroke-linecap="round" stroke-linejoin="round"/><g><path d="M52.414 194.301c-20.369 0-41.869-24.285-22.592-61.02s19.579-72.355 14.623-89.904c0 0 52.977 73.156 49.483 104.248-3.495 31.093-21.145 46.676-41.514 46.676z" fill="#B12929"/><path d="M53.63 188.092c-18.206 0-29.983-25.518-13.877-52.596 16.107-27.078 18.32-45.984 15.234-66.612 0 0 32.426 49.564 30.105 78.513-2.321 28.949-13.256 40.695-31.463 40.695z" fill="#EE7D7D"/><path d="M53.86 182.196c-8.759 0-20.419-15.437-10.697-35.583 9.722-20.145 18.347-37.822 18.966-50.686 0 0 18.179 34.979 15.34 58.034-2.839 23.055-14.851 28.234-23.61 28.234z" fill="#FFD9D9"/></g></g></svg>