<svg width="84" height="68" viewBox="0 0 84 68" xmlns="http://www.w3.org/2000/svg"><title>schedule</title><desc>Created with Sketch.</desc><g fill="none" fill-rule="evenodd"><path d="M29.461 29.48c-5.856.419-17.416 2.568-17.416 2.568l5.548 22.412 39.973-3.483-9.643-21.496s-12.36-.437-18.463 0zm14.96 6.614l-.582-1.798-.981.066-16.386 1.101-.981.066.582 1.798.981-.066 16.386-1.101.981-.066zm-20.758 1.406l-.567-1.799-.984.059-3.153.189-.984.059.567 1.799.984-.059 3.153-.189.984-.059zm22.631 2.2l-.582-1.798-.981.066-16.386 1.101-.981.066.582 1.798.981-.066 16.386-1.101.981-.066zm-20.758 1.406l-.567-1.799-.984.059-3.153.189-.984.059.567 1.799.984-.059 3.153-.189.984-.059zm21.631 2.2l-.582-1.798-.981.066-16.386 1.101-.981.066.582 1.798.981-.066 16.386-1.101.981-.066zm-20.758 1.406l-.567-1.799-.984.059-3.153.189-.984.059.567 1.799.984-.059 3.153-.189.984-.059zm22.631 2.2l-.582-1.798-.981.066-16.386 1.101-.981.066.582 1.798.981-.066 16.386-1.101.981-.066zm-20.758 1.406l-.567-1.799-.984.059-3.153.189-.984.059.567 1.799.984-.059 3.153-.189.984-.059z" fill="#6F798E"/><path d="M47.936 29.604l-1.06-23.544-36.754 1.972 1.912 24.039 35.901-2.467zm-7.559-15.083l.997-.073-.146-1.995-.997.073-16.653 1.222-.997.073.146 1.995.997-.073 16.653-1.222zm-21.099 1.552l.998-.066-.131-1.996-.998.066-3.199.21-.998.066.131 1.996.998-.066 3.199-.21zm22.099 2.448l.997-.073-.146-1.995-.997.073-16.653 1.222-.997.073.146 1.995.997-.073 16.653-1.222zm-21.099 1.552l.998-.066-.131-1.996-.998.066-3.199.21-.998.066.131 1.996.998-.066 3.199-.21zm21.099 2.448l.997-.073-.146-1.995-.997.073-16.653 1.222-.997.073.146 1.995.997-.073 16.653-1.222zm-21.099 1.552l.998-.066-.131-1.996-.998.066-3.199.21-.998.066.131 1.996.998-.066 3.199-.21zm22.099 2.448l.997-.073-.146-1.995-.997.073-16.653 1.222-.997.073.146 1.995.997-.073 16.653-1.222zm-21.099 1.552l.998-.066-.131-1.996-.998.066-3.199.21-.998.066.131 1.996.998-.066 3.199-.21z" fill="#99A4BB"/><path d="M67.142 42.7l-.964-.264-2.21.375 1.682 1.553.964.264 10.782 2.949.964.264.528-1.929-.964-.264-10.782-2.949z" fill="#B0BACD"/></g></svg>