<svg width="100" height="68" viewBox="0 0 100 68" xmlns="http://www.w3.org/2000/svg"><title>time</title><desc>Created with Sketch.</desc><g fill="none" fill-rule="evenodd"><g transform="translate(0 .765) translate(7.6 2.835)" stroke="#99A4BB" stroke-width="3.8"><circle stroke-linecap="square" cx="18.1" cy="18.7" r="18.358"/><path d="M10.836 14.948l7.264 4.87M27.758 10.798l-9.498 9.179" stroke-linecap="round"/></g><g><path d="M84.047 55.375l5.872-28.25h-36.5l-5.872 28.25h36.5zm-29.047-22.062h3.446l.599-3.313h-3.446l-.599 3.313zm4.308 0h3.446l.599-3.313h-3.446l-.599 3.313zm4.308 0h3.446l.599-3.313h-3.446l-.599 3.313zm4.308 0h3.446l.599-3.313h-3.446l-.599 3.313zm4.432 0h3.446l.599-3.313h-3.446l-.599 3.313zm4.345 0h3.446l.599-3.313h-3.446l-.599 3.313zm4.4 0h3.446l.599-3.313h-3.446l-.599 3.313zm-27.1 5h3.446l.599-3.313h-3.446l-.599 3.313zm4.308 0h3.446l.599-3.313h-3.446l-.599 3.313zm4.308 0h3.446l.599-3.313h-3.446l-.599 3.313zm4.308 0h3.446l.599-3.313h-3.446l-.599 3.313zm4.432 0h3.446l.599-3.313h-3.446l-.599 3.313zm4.345 0h3.446l.599-3.313h-3.446l-.599 3.313zm4.4 0h3.446l.599-3.313h-3.446l-.599 3.313zm-27.1 5h3.446l.599-3.313h-3.446l-.599 3.313zm4.308 0h3.446l.599-3.313h-3.446l-.599 3.313zm4.308 0h3.446l.599-3.313h-3.446l-.599 3.313zm4.308 0h3.446l.599-3.313h-3.446l-.599 3.313zm4.432 0h3.446l.599-3.313h-3.446l-.599 3.313zm4.345 0h3.446l.599-3.313h-3.446l-.599 3.313zm4.4 0h3.446l.599-3.313h-3.446l-.599 3.313zm-27.1 5h3.446l.599-3.313h-3.446l-.599 3.313zm4.308 0h3.446l.599-3.313h-3.446l-.599 3.313zm4.308 0h3.446l.599-3.313h-3.446l-.599 3.313zm-9.615 5h3.446l.599-3.313h-3.446l-.599 3.313zm4.308 0h3.446l.599-3.313h-3.446l-.599 3.313zm4.308 0h3.446l.599-3.313h-3.446l-.599 3.313zm5.308-5h3.446l.599-3.313h-3.446l-.599 3.313zm4.432 0h3.446l.599-3.313h-3.446l-.599 3.313zm4.345 0h3.446l.599-3.313h-3.446l-.599 3.313zm4.4 0h3.446l.599-3.313h-3.446l-.599 3.313z" fill="#99A4BB"/><path d="M89.33 28.226l5.982 21.5h-10.086" stroke="#99A4BB" stroke-width="1.75" stroke-linecap="square"/></g></g></svg>