<svg width="100" height="68" viewBox="0 0 100 68" xmlns="http://www.w3.org/2000/svg"><title>what</title><desc>Created with Sketch.</desc><g fill="none" fill-rule="evenodd"><path d="M23.97 9.421c-7.264 3.296-4.752 13.602-3.963 17.324.945 4.457 4.817 10.255 9.493 10.255 5.596 0 8.051-5.509 9.024-10.255.669-3.262 2.698-10.708-.594-15.047-.685-.903-1.642-4.894-1.642-4.894s-4.438 1.588-6.788 1.588c-2.283 0-4.097.377-5.53 1.028zm1.03 12.579c1.105 0 2-.895 2-2s-.895-2-2-2-2 .895-2 2 .895 2 2 2zm9 0c1.105 0 2-.895 2-2s-.895-2-2-2-2 .895-2 2 .895 2 2 2zm-9.821 6.603c.211.523.487 1.046.836 1.539 1.052 1.482 2.564 2.412 4.605 2.412 2.085 0 3.541-1.048 4.486-2.706.312-.547.547-1.126.719-1.705.103-.348.163-.622.19-.786.055-.344-.189-.688-1.328-.728-1.139-.041-2.441 1.708-2.441 1.708s-6.168-1.24-6.63-1.177c-.462.063-.766.39-.681.731.038.15.116.399.244.713z" fill="#99A4BB"/><path d="M2.573 48.792s-.6-7.913 2.346-9.431c2.945-1.518 12.859-5.029 12.859-5.029s4.366 7.002 12.149 7.002c7.782 0 10.749-7.002 10.749-7.002s9.769 1.334 12.397 5.029c2.629 3.696 2.58 10.087 2.58 10.087l-53.08-.656z" fill="#404C66"/><path d="M76.423 21.745c12.181-4.722 21.44.337 21.17 4.064-.27 3.727-10.804 22.322-10.804 22.322s-21.955-9.208-22.884-12.519c-.929-3.31.338-9.145 12.518-13.867zm.491 2.933l3.844-1.102 1.316 4.59 1.426 8.728-1.83.525-3.44-8.151-1.316-4.59zm4.239 14.457l3.66-1.049 1.016 3.544-3.66 1.049-1.016-3.544z" stroke="#99A4BB" stroke-linecap="round" fill="#99A4BB"/><path d="M58.896 16.854c3.387-1.313 5.962.094 5.886 1.13-.075 1.036-3.004 6.207-3.004 6.207s-6.105-2.561-6.363-3.481c-.258-.92.094-2.543 3.481-3.856z" stroke="#99A4BB" stroke-linecap="round" fill="#99A4BB" stroke-width="1.001"/><path d="M46.857 13.154c2.117-.821 3.726.059 3.679.706-.047.648-1.878 3.879-1.878 3.879s-3.815-1.6-3.977-2.176c-.161-.575.059-1.589 2.176-2.41z" stroke="#99A4BB" stroke-linecap="round" fill="#99A4BB" stroke-width="1.001"/></g></svg>